<svg width="195" height="35" viewBox="0 0 195 35" fill="none" xmlns="http://www.w3.org/2000/svg">
<path fill-rule="evenodd" clip-rule="evenodd" d="M31.126 19.5814C32.4967 17.2075 32.4967 14.2825 31.126 11.9086L26.924 4.63039C25.5533 2.25643 23.0204 0.793945 20.279 0.793945H11.875C9.13363 0.793945 6.60071 2.25643 5.23002 4.63039L1.02802 11.9086C-0.342673 14.2825 -0.342673 17.2075 1.02802 19.5814L5.23002 26.8596C6.60071 29.2336 9.13363 30.696 11.875 30.696H20.279C23.0204 30.696 25.5533 29.2336 26.924 26.8596L31.126 19.5814ZM13.2361 19.8524C14.1941 21.512 12.9966 23.5865 11.0802 23.5865C10.191 23.5865 9.36913 23.112 8.92436 22.3418L6.14417 17.5262C5.5078 16.4239 5.5078 15.0659 6.14417 13.9638L8.92436 9.14816C9.36913 8.37799 10.191 7.90351 11.0802 7.90351C12.9966 7.90351 14.1941 9.97802 13.2361 11.6375L11.1811 15.1969C10.9852 15.536 10.9852 15.9539 11.1811 16.2931L13.2361 19.8524Z" fill="url(#paint0_linear_787_5593)"/>
<path fill-rule="evenodd" clip-rule="evenodd" d="M31.126 19.5814C32.4967 17.2075 32.4967 14.2825 31.126 11.9086L26.924 4.63039C25.5533 2.25643 23.0204 0.793945 20.279 0.793945H11.875C9.13363 0.793945 6.60071 2.25643 5.23002 4.63039L1.02802 11.9086C-0.342673 14.2825 -0.342673 17.2075 1.02802 19.5814L5.23002 26.8596C6.60071 29.2336 9.13363 30.696 11.875 30.696H20.279C23.0204 30.696 25.5533 29.2336 26.924 26.8596L31.126 19.5814ZM13.2361 19.8524C14.1941 21.512 12.9966 23.5865 11.0802 23.5865C10.191 23.5865 9.36913 23.112 8.92436 22.3418L6.14417 17.5262C5.5078 16.4239 5.5078 15.0659 6.14417 13.9638L8.92436 9.14816C9.36913 8.37799 10.191 7.90351 11.0802 7.90351C12.9966 7.90351 14.1941 9.97802 13.2361 11.6375L11.1811 15.1969C10.9852 15.536 10.9852 15.9539 11.1811 16.2931L13.2361 19.8524Z" fill="#8D51E0"/>
<path d="M54.2308 22.4541C53.7896 22.6145 53.0275 22.7349 52.466 22.7349C50.8215 22.7349 49.4177 21.5717 49.4177 19.7267V13.3894H54.2709V8.0147H49.4177V2.84058H43.7623V8.0147H40.1123V13.3894H43.7623V20.0074C43.7623 25.1013 47.0111 28.0293 51.6237 28.0293C52.6666 28.0293 53.7896 27.8288 54.5116 27.4678L54.2308 22.4541Z" fill="#032B69"/>
<path d="M68.0479 7.6136C66.4034 7.6136 64.2776 8.65645 63.315 10.341V8.0147H57.6596V27.7084H63.315V15.7959C64.2776 13.8707 66.3232 12.8278 67.6067 12.8278C68.4089 12.8278 69.3715 12.9883 70.1336 13.269L70.4545 7.97459C69.8528 7.73393 69.0506 7.6136 68.0479 7.6136Z" fill="#032B69"/>
<path d="M86.3713 8.0147V20.2481C85.5291 21.6118 83.9648 22.4541 82.4406 22.4541C80.1143 22.4541 78.6302 20.9299 78.6302 18.2025V8.0147H72.9748V19.125C72.9748 24.7002 76.0231 28.1095 80.9967 28.1095C83.1626 28.1095 85.2483 27.0667 86.3713 25.3821V27.7084H92.0268V8.0147H86.3713Z" fill="#032B69"/>
<path d="M107.478 7.6136C104.991 7.6136 102.624 8.73667 101.662 10.341V8.0147H96.0064V34.2062H101.662V25.3821C102.624 26.9865 104.991 28.1095 107.478 28.1095C112.612 28.1095 116.623 23.5371 116.623 17.8415C116.623 12.146 112.612 7.6136 107.478 7.6136ZM106.234 22.7349C104.229 22.7349 102.504 21.692 101.662 20.2481V15.4349C102.504 14.0311 104.269 12.9482 106.234 12.9482C108.962 12.9482 111.088 15.074 111.088 17.8415C111.088 20.6492 108.962 22.7349 106.234 22.7349Z" fill="#032B69"/>
<path d="M133.745 8.0147V10.341C132.782 8.73667 130.376 7.6136 127.929 7.6136C122.795 7.6136 118.744 12.146 118.744 17.8415C118.744 23.5371 122.795 28.1095 127.929 28.1095C130.416 28.1095 132.782 26.9865 133.745 25.3821V27.7084H139.4V8.0147H133.745ZM129.173 22.7349C126.405 22.7349 124.279 20.6492 124.279 17.8415C124.279 15.0339 126.405 12.9482 129.173 12.9482C131.138 12.9482 132.903 14.0311 133.745 15.4751V20.2882C132.903 21.692 131.138 22.7349 129.173 22.7349Z" fill="#032B69"/>
<path d="M153.751 7.6136C152.106 7.6136 149.98 8.65645 149.018 10.341V8.0147H143.362V27.7084H149.018V15.7959C149.98 13.8707 152.026 12.8278 153.309 12.8278C154.112 12.8278 155.074 12.9883 155.836 13.269L156.157 7.97459C155.555 7.73393 154.753 7.6136 153.751 7.6136Z" fill="#032B69"/>
<path d="M165.519 28.1095C170.091 28.1095 173.3 25.4623 173.3 21.8123C173.179 14.7531 162.51 16.3174 162.47 13.4696C162.47 12.5872 163.433 11.9053 164.877 11.9053C167.003 11.9053 169.489 12.7877 171.014 13.9509L172.618 9.85973C170.653 8.29546 167.885 7.6136 165.117 7.6136C160.465 7.6136 157.176 10.4614 157.216 14.1514C157.296 21.4113 167.885 19.1651 167.925 22.1733C167.925 23.0959 166.802 23.7777 165.037 23.7777C162.631 23.7777 160.224 23.0557 158.379 21.692L156.695 25.6227C159.061 27.3073 162.149 28.1095 165.519 28.1095Z" fill="#032B69"/>
<path d="M194.999 16.9992C194.999 11.7449 190.828 7.6136 185.493 7.6136C179.758 7.6136 175.265 12.0256 175.265 17.7613C175.265 23.6173 179.838 28.1095 185.614 28.1095C189.705 28.1095 192.994 26.5854 194.438 23.9783L190.026 21.2909C189.344 22.4942 187.499 23.2964 185.734 23.2964C183.047 23.2964 181.202 21.8926 180.68 19.2052H194.839C194.959 18.4432 194.999 17.6811 194.999 16.9992ZM180.76 15.5954C181.282 13.4696 182.846 12.1861 185.213 12.1861C187.298 12.1861 189.103 13.63 189.344 15.5954H180.76Z" fill="#032B69"/>
<defs>
<linearGradient id="paint0_linear_787_5593" x1="8.97727" y1="1.64978" x2="26.4295" y2="26.3129" gradientUnits="userSpaceOnUse">
<stop stop-color="#9882F1"/>
<stop offset="1" stop-color="#8227D0"/>
</linearGradient>
</defs>
</svg>
